<svg xmlns="http://www.w3.org/2000/svg" xmlns:xlink="http://www.w3.org/1999/xlink" version="1.1" x="0px" y="0px" viewBox="0 0 66 66" enable-background="new 0 0 66 66" xml:space="preserve"><g><path d="M7.4,14.6c0.9,1.3,1.3,2.8,1.3,4.4s-0.5,3.1-1.3,4.4C6.5,22,6,20.5,6,19C6,17.5,6.5,16,7.4,14.6z"></path><path d="M18.8,13.1c-1.3,1.7-2,3.7-2,5.9c0,2.1,0.7,4.2,2,5.9c-1.4,1.2-3.2,1.9-5,1.9c-1.9,0-3.7-0.7-5-1.9c1.3-1.7,2-3.7,2-5.9   c0-2.1-0.7-4.2-2-5.9c1.4-1.2,3.2-1.9,5-1.9C15.7,11.3,17.4,11.9,18.8,13.1z"></path><path d="M21.6,19c0,1.4-0.4,3-1.3,4.3c0,0,0,0.1-0.1,0.1c-0.9-1.3-1.3-2.8-1.3-4.4s0.5-3.1,1.3-4.4c0,0,0,0,0,0.1   C21,15.8,21.6,17.4,21.6,19z"></path><g><path d="M65,59.3c0,0.5-0.4,1-1,1H2c-0.6,0-1-0.5-1-1V6.7c0-0.6,0.4-1,1-1c0.6,0,1,0.4,1,1v51.6h6.2V31.5c0-0.5,0.5-1,1-1h7.3    c0.6,0,1,0.5,1,1v26.8h4.7V37c0-0.6,0.5-1,1-1h7.3c0.5,0,1,0.4,1,1v21.3h4.7V43.5c0-0.5,0.4-1,1-1h7.3c0.5,0,1,0.5,1,1v14.8h4.8    v-9.4c0-0.5,0.5-1,1-1h7.3c0.5,0,1,0.5,1,1v9.4H64C64.6,58.3,65,58.8,65,59.3z"></path><path d="M24.6,26.2C24.6,26.2,24.6,26.2,24.6,26.2l0.4,4.5c0.1,0.6,0.5,1,1.1,0.9c0.5-0.1,1-0.5,0.9-1.1l-0.2-2.2    C43.9,42.1,59.9,42.9,60.6,43c0,0,0,0,0,0c0.5,0,1-0.4,1-1c0-0.6-0.4-1-1-1c-0.2,0-15.9-0.9-32.6-14.1l2.1-0.2    c0.5-0.1,1-0.5,0.9-1.1c-0.1-0.6-0.5-1-1.1-0.9l-4.6,0.4C24.9,25.1,24.5,25.6,24.6,26.2z"></path></g></g></svg>