<svg version="1.1" id="cube" xmlns="http://www.w3.org/2000/svg" xmlns:xlink="http://www.w3.org/1999/xlink" x="0px" y="0px" viewBox="3.7899999618530273 4 427.6499938964844 427.6600036621094" enable-background="new 0 0 434.83 434.17" xml:space="preserve">
<g>
	<path fill="#F78D03" d="M275.85,142.93v-26.17c48.86,0.31,96.03,7.99,140.42,21.94C384.79,59.78,307.74,4,217.63,4
		c-53.5,0-102.36,19.69-139.87,52.16c7.97,53.66,25.68,106.76,54.06,156.65l-22.65,13.05C82.44,178.93,64.7,129.28,55.11,78.94
		C23.14,116.3,3.79,164.79,3.79,217.83c0,96.61,64.12,178.25,152.1,204.73c42.17-33.63,79.01-75.26,107.83-124.5l22.61,13.07
		c-26.76,45.79-60.14,85.37-98.12,118.46c9.65,1.33,19.43,2.07,29.4,2.07c118.09,0,213.83-95.74,213.83-213.83
		c0-16.59-1.97-32.71-5.54-48.22C378.97,152.69,328.48,143.25,275.85,142.93z"></path>
</g>
</svg>